:SAMPLES-PER-SECOND 30
:FULLY-SPECIFIED
:DEGREES
403
root  -58.4725 38.5517 -18.699 26.4265 -5.14088 -0.736267
RightUpLeg  -57.1406 -24.0745 13.1324
RightLeg  26.7414 -1.22776 -0.901048
RightFoot  1.24147 0.351426 -3.10208
RightToes  0.00048216 0.542163 -0.142577
Spine  63.6952 -5.83384 8.53957
Spine1  10.7534 2.17463 -8.60662
HEad  -27.1291 -6.92911 0.433884
LeftShoulder1  10.2711 -26.1261 -28.3825
LeftArm  -28.6019 -73.4033 -21.1016
LeftForeArm  19.6739 -11.9133 -5.46537
LeftHand  -0.25398 0.0180481 5.50724
RightShoulder  5.85896 14.5715 26.3293
RightArm  -50.9762 57.689 -12.1814
RightForeArm  -16.2396 12.6867 6.64585
RightHand  0.275346 9.63022 1.60522
LeftUpLeg  -59.118 22.9003 -20.7074
LeftLeg  26.7257 5.24593 3.19872
LeftFoot  -2.09485 -0.565442 7.16239
LeftToes  1.06246e-005 4.65855e-005 -8.185e-006
404
root  -59.0178 38.3403 -18.7611 28.4726 -4.25645 -0.899948
RightUpLeg  -60.3231 -23.3015 15.0282
RightLeg  28.6165 -1.70492 -1.24373
RightFoot  0.0156155 0.371178 -3.72234
RightToes  0.00048216 0.542163 -0.142577
Spine  64.0421 -5.68688 8.19003
Spine1  11.8809 2.06653 -7.64284
HEad  -28.8805 -5.83847 -0.95893
LeftShoulder1  9.80788 -25.2511 -27.8373
LeftArm  -37.6488 -76.1641 -12.0558
LeftForeArm  19.2611 -11.6657 -5.23248
LeftHand  -0.25398 0.0180481 5.50724
RightShoulder  5.49377 14.8294 23.7556
RightArm  -55.6375 58.8606 -14.5146
RightForeArm  -17.0645 11.9771 6.27467
RightHand  0.223925 9.97837 1.16292
LeftUpLeg  -62.3574 24.4131 -23.8125
LeftLeg  29.3047 6.46274 4.24402
LeftFoot  -4.45625 -0.498588 8.68709
LeftToes  1.06246e-005 4.65855e-005 -8.185e-006
405
root  -59.5255 38.1292 -18.8091 30.4237 -3.1996 -0.977173
RightUpLeg  -63.2894 -22.7077 16.8441
RightLeg  30.3347 -2.18457 -1.62513
RightFoot  -1.06762 0.358063 -4.0595
RightToes  0.00048216 0.542163 -0.142577
Spine  64.7588 -5.563 8.27892
Spine1  11.6594 2.14983 -7.01325
HEad  -29.9171 -5.2779 -1.73558
LeftShoulder1  9.52142 -25.1411 -26.9458
LeftArm  -46.3104 -77.9241 -3.22471
LeftForeArm  18.9659 -11.1836 -5.16092
LeftHand  -0.25398 0.0180481 5.50724
RightShoulder  5.35356 14.719 23.1396
RightArm  -59.2352 59.2045 -17.5865
RightForeArm  -18.4095 12.1013 6.04619
RightHand  0.152484 10.1129 0.612316
LeftUpLeg  -65.1913 24.5036 -25.3382
LeftLeg  30.5608 5.05479 3.57089
LeftFoot  -5.29193 -0.457856 9.23654
LeftToes  1.06246e-005 4.65855e-005 -8.185e-006
406
root  -59.9954 37.9222 -18.863 32.0141 -1.99524 -0.700684
RightUpLeg  -66.122 -22.6226 18.445
RightLeg  32.1914 -2.79763 -2.14755
RightFoot  -2.36435 0.34863 -4.64583
RightToes  0.00048216 0.542163 -0.142577
Spine  65.5832 -5.58056 8.44849
Spine1  11.0843 2.02801 -6.44085
HEad  -30.6945 -5.12359 -1.62705
LeftShoulder1  9.32679 -25.059 -26.3425
LeftArm  -56.3503 -79.5842 7.20399
LeftForeArm  18.9114 -10.5814 -5.22983
LeftHand  -0.25398 0.0180481 5.50724
RightShoulder  5.20428 14.5962 22.4778
RightArm  -62.8348 58.9817 -20.0855
RightForeArm  -19.2805 12.3851 5.626
RightHand  0.0920253 10.0877 0.163268
LeftUpLeg  -67.6283 23.6158 -25.6672
LeftLeg  31.2567 3.8097 2.84889
LeftFoot  -4.77799 -0.481104 8.88041
LeftToes  1.06246e-005 4.65855e-005 -8.185e-006
407
root  -60.4183 37.6993 -18.9113 33.178 -1.13728 -0.270844
RightUpLeg  -68.7045 -22.6606 19.7531
RightLeg  34.2076 -3.07612 -2.50477
RightFoot  -3.70934 0.342356 -5.5003
RightToes  0.00048216 0.542163 -0.142577
Spine  66.3557 -5.54608 8.46752
Spine1  10.8071 1.93523 -6.15655
HEad  -31.362 -5.10305 -1.17173
LeftShoulder1  9.14107 -24.9834 -25.758
LeftArm  -68.2468 -80.981 19.0042
LeftForeArm  19.109 -10.1653 -5.18984
LeftHand  -0.25398 0.0180481 5.50724
RightShoulder  4.97524 14.2914 21.6363
RightArm  -66.5307 58.756 -22.3112
RightForeArm  -19.8016 12.291 5.11571
RightHand  0.0711607 10.0511 0.00957224
LeftUpLeg  -69.8751 23.0987 -26.1471
LeftLeg  32.3563 3.29781 2.60645
LeftFoot  -4.26502 -0.498369 8.45704
LeftToes  1.06246e-005 4.65855e-005 -8.185e-006
408
root  -60.7954 37.4844 -18.9491 34.0892 -0.69014 0.128937
RightUpLeg  -70.8335 -22.4998 20.7459
RightLeg  35.99 -3.08464 -2.67176
RightFoot  -4.72166 0.330554 -6.25139
RightToes  0.00048216 0.542163 -0.142577
Spine  67.0512 -5.4277 8.18242
Spine1  10.8669 1.86757 -6.10348
HEad  -31.9424 -4.69523 -1.18764
LeftShoulder1  8.87743 -24.8393 -24.9635
LeftArm  -79.9467 -81.6446 30.1284
LeftForeArm  19.0821 -10.1104 -4.93593
LeftHand  -0.25398 0.0180481 5.50724
RightShoulder  4.72801 13.9348 20.7382
RightArm  -69.7889 58.876 -24.3168
RightForeArm  -20.0592 11.8615 4.66538
RightHand  0.114154 10.0957 0.328384
LeftUpLeg  -71.8859 23.2269 -27.2424
LeftLeg  33.6138 2.45131 2.11334
LeftFoot  -4.40773 -0.484608 8.42317
LeftToes  1.06246e-005 4.65855e-005 -8.185e-006
409
root  -61.1244 37.3071 -18.9768 34.9904 -0.33429 0.399933
RightUpLeg  -72.5654 -22.1679 21.6126
RightLeg  37.2975 -3.24633 -2.9254
RightFoot  -5.52864 0.304771 -6.72379
RightToes  0.00048216 0.542163 -0.142577
Spine  67.6579 -5.34838 7.86421
Spine1  10.7407 1.74736 -6.06594
HEad  -32.3923 -4.00788 -1.70643
LeftShoulder1  8.61505 -24.7254 -24.1282
LeftArm  -88.6713 -81.5557 38.3563
LeftForeArm  18.6094 -10.1431 -4.6175
LeftHand  -0.25398 0.0180481 5.50724
RightShoulder  4.51971 13.7136 19.8174
RightArm  -72.176 59.0488 -25.9675
RightForeArm  -20.3504 11.4242 4.34417
RightHand  0.163273 10.1067 0.693464
LeftUpLeg  -73.6756 23.3744 -28.2878
LeftLeg  34.4611 1.25583 1.29301
LeftFoot  -4.72134 -0.462524 8.46987
LeftToes  1.06246e-005 4.65855e-005 -8.185e-006
410
root  -61.4054 37.1663 -18.9906 35.9048 0.0454102 0.556763
RightUpLeg  -74.0795 -21.85 22.5164
RightLeg  38.2528 -3.46022 -3.20089
RightFoot  -6.35107 0.270181 -7.17213
RightToes  0.00048216 0.542163 -0.142577
Spine  68.1649 -5.28429 7.69655
Spine1  10.342 1.60964 -5.85833
HEad  -32.7408 -3.56932 -2.24404
LeftShoulder1  8.47038 -24.7672 -23.5435
LeftArm  -95.1493 -81.0384 44.8913
LeftForeArm  17.8916 -9.99983 -4.41894
LeftHand  -0.25398 0.0180481 5.50724
RightShoulder  4.31377 13.601 18.708
RightArm  -73.8759 58.9195 -27.3173
RightForeArm  -21.3863 11.1104 4.11416
RightHand  0.0931673 9.97418 0.179621
LeftUpLeg  -75.2911 23.2493 -28.8589
LeftLeg  35.0227 0.541559 0.775595
LeftFoot  -4.74203 -0.452537 8.36592
LeftToes  1.06246e-005 4.65855e-005 -8.185e-006
411
root  -61.6492 37.0526 -18.9881 36.6332 0.27475 0.758911
RightUpLeg  -75.3886 -21.7291 23.3958
RightLeg  39.0495 -3.33489 -3.17983
RightFoot  -7.04061 0.247556 -7.83877
RightToes  0.00048216 0.542163 -0.142577
Spine  68.6519 -5.12292 7.46585
Spine1  10.1211 1.48788 -5.50101
HEad  -33.1111 -3.58217 -2.4349
LeftShoulder1  8.37534 -24.8606 -23.0854
LeftArm  -100.688 -80.3408 50.8832
LeftForeArm  17.2352 -9.83788 -4.3214
LeftHand  -0.25398 0.0180481 5.50724
RightShoulder  4.07156 13.4157 17.4589
RightArm  -75.3528 58.6474 -28.5888
RightForeArm  -23.0835 10.975 3.94716
RightHand  -0.087024 9.84971 -1.178
LeftUpLeg  -76.521 23.0776 -29.2104
LeftLeg  35.5789 0.343439 0.632531
LeftFoot  -4.65637 -0.438594 8.16387
LeftToes  1.06246e-005 4.65855e-005 -8.185e-006
412
root  -61.8632 36.9637 -18.9727 37.105 0.277237 1.08249
RightUpLeg  -76.4471 -21.8297 24.1633
RightLeg  39.7374 -2.94555 -2.91007
RightFoot  -7.50231 0.235866 -8.52152
RightToes  0.00048216 0.542163 -0.142577
Spine  69.161 -4.90056 7.05001
Spine1  10.2159 1.34725 -5.19493
HEad  -33.6275 -3.66646 -2.29168
LeftShoulder1  8.14712 -24.73 -22.3793
LeftArm  -105.196 -79.7084 55.5036
LeftForeArm  16.7816 -9.90827 -4.14152
LeftHand  -0.25398 0.0180481 5.50724
RightShoulder  3.82756 13.0633 16.4179
RightArm  -76.8393 58.6262 -29.8002
RightForeArm  -24.0004 11.1358 3.85265
RightHand  -0.187831 9.92269 -1.94082
LeftUpLeg  -77.2461 23.0038 -29.5645
LeftLeg  36.0295 0.0956328 0.444851
LeftFoot  -4.72242 -0.418314 7.83826
LeftToes  1.06246e-005 4.65855e-005 -8.185e-006
413
root  -62.0431 36.8898 -18.9482 37.5005 0.19133 1.37903
RightUpLeg  -77.3462 -21.9566 24.8703
RightLeg  40.3079 -2.65847 -2.70684
RightFoot  -7.93265 0.212414 -8.90736
RightToes  0.00048216 0.542163 -0.142577
Spine  69.5731 -4.73048 6.68647
Spine1  10.2912 1.20744 -5.03939
HEad  -34.0706 -3.63977 -2.00496
LeftShoulder1  7.80897 -24.3176 -21.5565
LeftArm  -108.625 -79.3052 58.3934
LeftForeArm  16.4918 -10.2303 -3.82059
LeftHand  -0.25398 0.0180481 5.50724
RightShoulder  3.61905 12.6401 15.6726
RightArm  -78.2757 58.9336 -30.6659
RightForeArm  -23.3277 11.5259 3.77652
RightHand  -0.102474 10.0602 -1.28873
LeftUpLeg  -77.8106 22.9636 -29.8564
LeftLeg  36.3091 -0.253954 0.170687
LeftFoot  -4.84044 -0.391582 7.4061
LeftToes  1.06246e-005 4.65855e-005 -8.185e-006
414
root  -62.1901 36.8174 -18.9186 37.9435 0.126526 1.53075
RightUpLeg  -78.1884 -21.9477 25.5589
RightLeg  40.8019 -2.52406 -2.62794
RightFoot  -8.39747 0.17835 -9.11674
RightToes  0.00048216 0.542163 -0.142577
Spine  69.782 -4.6269 6.56632
Spine1  10.1961 1.16085 -4.9604
HEad  -34.2687 -3.45133 -1.94014
LeftShoulder1  7.60662 -24.0332 -21.0913
LeftArm  -110.31 -78.8822 59.6002
LeftForeArm  16.2575 -10.7497 -3.52339
LeftHand  -0.25398 0.0180481 5.50724
RightShoulder  3.44327 12.2748 15.0239
RightArm  -79.5589 59.3485 -31.0956
RightForeArm  -22.3364 11.8746 3.66915
RightHand  0.00930456 10.0676 -0.454957
LeftUpLeg  -78.5486 22.9601 -30.1213
LeftLeg  36.6367 -0.452328 0.0107159
LeftFoot  -4.8724 -0.372781 7.11082
LeftToes  1.06246e-005 4.65855e-005 -8.185e-006
415
root  -62.3176 36.7515 -18.8889 38.3134 0.0645142 1.63498
RightUpLeg  -78.8963 -21.8894 26.1424
RightLeg  41.2533 -2.38251 -2.53526
RightFoot  -8.73394 0.15727 -9.46622
RightToes  0.00048216 0.542163 -0.142577
Spine  69.8882 -4.55608 6.56251
Spine1  10.1429 1.20275 -4.90176
HEad  -34.3345 -3.22901 -2.02067
LeftShoulder1  7.64891 -24.246 -21.0229
LeftArm  -109.304 -78.0434 58.9968
LeftForeArm  15.9487 -11.3866 -3.3893
LeftHand  -0.25398 0.0180481 5.50724
RightShoulder  3.30562 12.0116 14.4589
RightArm  -80.702 59.7555 -31.4702
RightForeArm  -22.3217 12.0454 3.58682
RightHand  -0.0327583 10.0413 -0.766757
LeftUpLeg  -79.2553 23.0378 -30.4447
LeftLeg  37.0566 -0.575687 -0.093274
LeftFoot  -4.88276 -0.367991 7.047
LeftToes  1.06246e-005 4.65855e-005 -8.185e-006
